# xmcd CD database file generated by Grip 2.98.5
# 
# Track frame offsets:
#       150
#       7256
#       26490
#       38950
#       51078
#       55974
#       66669
#       79274
#       96024
#       106921
#       112262
#       123717
#       135898
#       147444
#       151848
#       164845
#       169201
#       182443
#       186848
#       195145
#       209215
#       220268
#       242717
# 
# Disc length: 3367 secs
# 
# Revision: 7
# Processed by: cddbd v1.4PL0 Copyright (c) Steve Scherf et al.
# Submitted via: Grip 2.98.5
# 
DISCID=590d2517
DTITLE=Magnetic Fields - 69 Love Songs, Vol. 1
DYEAR=1999
DGENRE=Rock
TTITLE0=Absolutely Cuckoo
TTITLE1=I Don't Believe in the Sun
TTITLE2=All My Little Words
TTITLE3=A Chicken with Its Head Cut Off
TTITLE4=Reno Dakota
TTITLE5=I Don't Want To Get Over You
TTITLE6=Come Back from San Francisco
TTITLE7=The Luckiest Guy on the Lower East Side
TTITLE8=Let's Pretend We're Bunny Rabbits
TTITLE9=The Cactus Where Your Heart Should Be
TTITLE10=I Think I Need a New Heart
TTITLE11=The Book of Love
TTITLE12=Fido, Your Leash is Too Long
TTITLE13=How Fucking Romantic
TTITLE14=The One You Really Love
TTITLE15=Punk Love
TTITLE16=Parades Go By
TTITLE17=Boa Constrictor
TTITLE18=A Pretty Girl is Like...
TTITLE19=My Sentimental Melody
TTITLE20=Nothing Matters When We're Dancing
TTITLE21=Sweet-Lovin' Man
TTITLE22=The Things We Did and Didn't Do
EXTD=
EXTT0=
EXTT1=
EXTT2=
EXTT3=
EXTT4=
EXTT5=
EXTT6=
EXTT7=
EXTT8=
EXTT9=
EXTT10=
EXTT11=
EXTT12=
EXTT13=
EXTT14=
EXTT15=
EXTT16=
EXTT17=
EXTT18=
EXTT19=
EXTT20=
EXTT21=
EXTT22=
PLAYORDER=
